# xmcd
#
# Track frame offsets:
# 150
# 13938
# 26933
# 39659
# 52027
# 62792
# 73944
# 85893
# 100542
# 115844
# 131089
# 144689
# 155022
# 166270
# 178148
# 194209
# 206734
# 220145
# 232833
# 246807
#
# Disc length: 3465 seconds
#
#
# Revision: 0
# Processed by: cddbd v1.5.2PL0 Copyright (c) Steve Scherf et al.
# Submitted via: FreeRIP 2.945 
#
DISCID=330d8714
DTITLE=LUISFernando& Rafhael - LUIs Fernanddo& RaFhael
DYEAR=2003
DGENRE=Sertanejo
TTITLE0=Bruno and Marrone  Apasiguar
TTITLE1=Bruno and Marrone- Credo cruz Ave Mariaa
TTITLE2=Bruno and Marrone- E prá la que eu  vou
TTITLE3=Bruno and Marrone - OLha rebolado que a morena tem
TTITLE4=Bruno&Marrone - Sem vergonha
TTITLE5=Bruno and  Marrone - Tà  liberado
TTITLE6=Felipe Falcão - Nois e simprão de tudo
TTITLE7=Felipe and FAlcão-  Quem que  verdura
TTITLE8=Felipe and Falcão-  Vai  rimar com que ?
TTITLE9=César and paulinho- A  gata  do bmv
TTITLE10=César& Paulino - As  água  do São  Francisco
TTITLE11=César and Paulinho- Barbaridade
TTITLE12=César& Paulinho- Canta moçada
TTITLE13=César& Paulinho- POriso Que  eu bebo
TTITLE14=César& Paulinho- Saudade matadeira
TTITLE15=Fred& pedrito- As mocinhas da  cidade
TTITLE16=Fred& pedrito- Pinha  no Pinheiro
TTITLE17=Fred& Pedrito-  Forró da Mariquinha
TTITLE18=João Paulo and Daniel -  Eu me amarrei
TTITLE19=CHitãozinho and xororó- Galinhada
EXTD=
EXTT0=
EXTT1=
EXTT2=
EXTT3=
EXTT4=
EXTT5=
EXTT6=
EXTT7=
EXTT8=
EXTT9=
EXTT10=
EXTT11=
EXTT12=
EXTT13=
EXTT14=
EXTT15=
EXTT16=
EXTT17=
EXTT18=
EXTT19=
PLAYORDER=
